<svg id="LOGO" xmlns="http://www.w3.org/2000/svg" viewBox="0 0 1423.99 733.5"><defs><style>.cls-1{fill:#2e2d62;}.cls-2{fill:#fff;}.cls-3{fill:#003088;}.cls-4{fill:#1e5df8;}</style></defs><rect class="cls-1" x="85.04" y="85.04" width="283.46" height="283.46"/><path class="cls-2" d="M337.31,116.23H304.26l-44.44,47.32V116.23h-64.2V179c0,13.45-10,21.26-23.17,21.26s-23.16-7.81-23.16-21.26V116.23H116.23v63.29c0,28.35,22.89,44.61,48.71,47.25H116.23V337.3h33.06v-41h14.43l30.55,41h143V315H298.56V249.09h38.75V219.93l-47.38-48.51,47.38-48.35ZM226.77,193v51.28c-7-11.88-23.22-17.4-47.24-17.46C201,224.59,220.78,213,226.77,193Zm-77.48,56.14h30.24c12.43,0,17.47,4.82,17.47,12.39S192,274,179.53,274H149.29ZM265.51,315H226.77v15.49L199.5,294.73c20.76-3.82,31.49-14.56,31.49-33.25a36.73,36.73,0,0,0-2-12.39h36.48Zm38.75-88.21H259.82V179.32Z"/><path class="cls-1" d="M96.23,525.46H85v-86.1H96.23Z"/><path class="cls-1" d="M141.88,526.69c-18.21,0-28.91-9.71-30-25.83h10.94c1.36,10.34,8,16.12,19.07,16.12,9,0,16.6-4.06,16.6-13.78,0-10.95-9.84-14.39-18-16.85l-4.3-1.23c-9.23-2.95-21.65-8.24-21.65-23.12,0-14.64,11.81-23.87,27.43-23.87,16.36,0,27.06,10.34,27.8,24.36H158.73c-.86-8.12-6.27-14.64-16.73-14.64-9.59,0-16.36,5.66-16.36,13.65,0,9.6,9.72,12.43,17.1,14.76l3.81,1.23c7.38,2.34,23.25,7.63,23.25,25.47C169.8,519.07,157,526.69,141.88,526.69Z"/><path class="cls-1" d="M198.16,525.46H187v-86.1h11.19Z"/><path class="cls-1" d="M243.81,526.69c-18.21,0-28.91-9.71-30-25.83h11c1.35,10.34,8,16.12,19.07,16.12,9,0,16.6-4.06,16.6-13.78,0-10.95-9.84-14.39-18-16.85l-4.3-1.23c-9.23-2.95-21.65-8.24-21.65-23.12,0-14.64,11.81-23.87,27.43-23.87,16.36,0,27.06,10.34,27.8,24.36H260.66c-.86-8.12-6.28-14.64-16.73-14.64-9.59,0-16.36,5.66-16.36,13.65,0,9.6,9.72,12.43,17.1,14.76l3.81,1.23c7.38,2.34,23.25,7.63,23.25,25.47C271.73,519.07,258.94,526.69,243.81,526.69Z"/><path class="cls-1" d="M391.16,439.36v86.1H379.1l-45.51-67.15h-.86v67.15H321.79v-86.1H334l45.39,67.16h.86V439.36Z"/><path class="cls-1" d="M462.26,497.3H416.38c.62,12.17,7.75,20.54,19.19,20.54,8,0,14-3.57,16.12-10.33h10.45c-2.7,12.17-12.91,19.18-26.57,19.18-17.46,0-29.89-12.42-29.89-31.36,0-19.93,12.8-32.6,29.4-32.6,14.88,0,27.43,10.21,27.43,30.75C462.51,494.71,462.39,495.82,462.26,497.3Zm-45.75-7.88h35.55c-.13-10.57-7-17.83-17-17.83C424.75,471.59,417.61,479.46,416.51,489.42Z"/><path class="cls-1" d="M526.12,525.46h-9.71l-1-7.38h-.86c-3.32,4.56-8.24,8.61-17.83,8.61-13.16,0-22.39-8.36-22.39-24.1V464H485v36.29c0,11.81,6.4,17,14.39,17,8.37,0,16-5.41,16-18.2V464h10.7Z"/><path class="cls-1" d="M547.49,511.57V472.7h-13V464h4.18c7.26,0,9.84-2.46,9.84-9.1v-7.62h9.84V464h15.38v8.74H558.31v37.39c0,4.43,1.72,7.75,7.75,7.75a21.24,21.24,0,0,0,6.15-1v8.49a31.92,31.92,0,0,1-9,1.35C550.44,526.69,547.49,518.7,547.49,511.57Z"/><path class="cls-1" d="M581.89,464h9.72l1,8.49h.86c3.2-5.53,7.5-9.72,17.59-9.72h3.57v10.83a40.22,40.22,0,0,0-5.54-.25c-10.7,0-16.48,8.37-16.48,19.93v32.22h-10.7Z"/><path class="cls-1" d="M618.7,494.71c0-18.45,12.92-32,30.87-32,17.72,0,31,13.66,31,32s-13.16,32-31,32S618.7,512.92,618.7,494.71Zm51.17,0c0-12.3-8.24-22.5-20.3-22.5s-20.05,10.2-20.05,22.5,8,22.51,20.05,22.51S669.87,506.89,669.87,494.71Z"/><path class="cls-1" d="M692.51,464h9.72l1,7.38h.86c3.33-4.55,8.25-8.61,17.84-8.61,13.16,0,22.39,8.37,22.39,24.11v38.62H733.6V489.18c0-11.81-6.4-17-14.4-17-8.36,0-16,5.41-16,18.2v35.05h-10.7Z"/><path class="cls-1" d="M845.28,517.1v8.36h-4.92c-5.78,0-9.6-2-11-7.87-4.31,5.54-11.19,9.1-20.3,9.1-11.43,0-20.29-5.53-20.29-17.58,0-11.57,8.86-17.59,20.91-18.82l18.33-1.73v-3.44c0-8.36-4.55-13.53-12.79-13.53s-12.06,5-13.29,11.69h-10.7c1.23-11.81,9.84-20.55,24-20.55,13.77,0,23.61,7.75,23.61,22.64v26.69c0,3.57,1.6,5,4.8,5Zm-17.22-20.66-14.89,1.47c-8,.74-13.53,4.31-13.53,10.83,0,6.89,5.05,9.34,11,9.34,8.12,0,17.47-4.3,17.47-16.23Z"/><path class="cls-1" d="M854.92,464h9.72l1,7.38h.86c3.32-4.55,8.24-8.61,17.84-8.61,13.16,0,22.38,8.37,22.38,24.11v38.62H896V489.18c0-11.81-6.39-17-14.39-17-8.36,0-16,5.41-16,18.2v35.05h-10.7Z"/><path class="cls-1" d="M977.16,438.13v87.33H968.3l-1-8.73h-.74a23.33,23.33,0,0,1-19.8,10c-16.49,0-28.29-12.91-28.29-32.1,0-19.56,12-31.86,28.29-31.86,10.33,0,16.6,5,19.68,9.35V438.13Zm-10.7,56.46c0-13.28-7.26-22.38-18.33-22.38s-18.94,9.1-18.94,22.38c0,13.53,7.75,22.63,18.94,22.63S966.46,508.12,966.46,494.59Z"/><path class="cls-1" d="M171.51,648.46H160.56V582.29h-.74l-25.33,56.34H122.43L97,582.29H96v66.17H85v-86.1H99.31L128,626.94h.86l28.53-64.58h14.15Z"/><path class="cls-1" d="M240.5,648.46h-9.72l-1-7.38h-.86c-3.32,4.56-8.24,8.62-17.84,8.62-13.16,0-22.38-8.37-22.38-24.11V587h10.7v36.29c0,11.81,6.39,17,14.39,17,8.36,0,16-5.41,16-18.2V587h10.7Z"/><path class="cls-1" d="M252.44,617.71c0-18.45,12.92-32,30.87-32,17.72,0,31,13.66,31,32s-13.16,32-31,32S252.44,635.92,252.44,617.71Zm51.17,0c0-12.3-8.24-22.5-20.3-22.5s-20.05,10.2-20.05,22.5,8,22.51,20.05,22.51S303.61,629.89,303.61,617.71Z"/><path class="cls-1" d="M326.25,587H336l1,7.38h.86c3.33-4.55,8.25-8.61,17.84-8.61,13.16,0,22.39,8.37,22.39,24.11v38.62H367.33V612.18c0-11.81-6.39-17-14.39-17-8.36,0-16,5.41-16,18.2v35.05h-10.7Z"/><path class="cls-1" d="M455.52,649.7c-18.2,0-28.9-9.72-30-25.84h10.95c1.35,10.34,8,16.12,19.06,16.12,9,0,16.61-4.06,16.61-13.78,0-11-9.84-14.39-18-16.85l-4.3-1.23c-9.23-3-21.65-8.24-21.65-23.12,0-14.64,11.8-23.87,27.43-23.87,16.36,0,27.06,10.34,27.79,24.36H472.37c-.86-8.12-6.27-14.64-16.72-14.64-9.6,0-16.36,5.66-16.36,13.65,0,9.6,9.71,12.43,17.09,14.76l3.82,1.23c7.38,2.34,23.24,7.63,23.24,25.47C483.44,642.07,470.65,649.7,455.52,649.7Z"/><path class="cls-1" d="M494.46,617.71c0-18.45,12.92-32,30.88-32,17.71,0,31,13.66,31,32s-13.16,32-31,32S494.46,635.92,494.46,617.71Zm51.17,0c0-12.3-8.24-22.5-20.29-22.5s-20.05,10.2-20.05,22.5,8,22.51,20.05,22.51S545.63,629.89,545.63,617.71Z"/><path class="cls-1" d="M619.6,648.46h-9.71l-1-7.38H608c-3.32,4.56-8.24,8.62-17.83,8.62-13.16,0-22.39-8.37-22.39-24.11V587h10.7v36.29c0,11.81,6.4,17,14.39,17,8.37,0,16-5.41,16-18.2V587h10.7Z"/><path class="cls-1" d="M634.28,587H644l1,8.49h.86c3.2-5.53,7.5-9.72,17.59-9.72H667v10.83a40,40,0,0,0-5.53-.25c-10.7,0-16.48,8.37-16.48,19.93v32.22h-10.7Z"/><path class="cls-1" d="M671.09,618.08c0-18.69,12.79-32.35,30.5-32.35,13.66,0,25.59,7.75,27.8,22H718.57c-1.6-6.76-7.75-12.54-17-12.54-11.56,0-19.68,10-19.68,22.87,0,12.43,7.51,22.14,19.81,22.14,9.1,0,14.76-4.67,17.09-11.8h10.83c-2.34,12.91-13.16,21.28-27.92,21.28C683,649.7,671.09,636,671.09,618.08Z"/><path class="cls-1" d="M794.3,620.3H748.42c.61,12.17,7.75,20.54,19.19,20.54,8,0,14-3.57,16.11-10.33h10.45c-2.7,12.17-12.91,19.19-26.56,19.19-17.47,0-29.89-12.43-29.89-31.37,0-19.93,12.79-32.6,29.39-32.6,14.89,0,27.43,10.21,27.43,30.75C794.54,617.71,794.42,618.82,794.3,620.3Zm-45.76-7.87h35.55c-.12-10.58-7-17.84-17-17.84C756.78,594.59,749.65,602.46,748.54,612.43Z"/><polygon class="cls-3" points="395.46 85.05 572.04 317.09 572.04 200.6 651.97 200.6 651.97 85.05 395.46 85.05"/><polygon class="cls-4" points="572.04 200.6 572.04 317.09 395.46 85.05 368.5 49.48 368.5 85.05 368.5 368.5 651.97 368.5 651.97 200.6 572.04 200.6"/><path class="cls-1" d="M746.07,172.93c-12.3,0-20.83-8-20.83-18.58H735.7c1,7,6.75,8.61,10.29,8.61,2.73,0,8.2-1,8.2-6.19,0-4.75-4.58-6.68-9.16-8.45-7.56-3-18.26-6.59-18.26-17.29,0-9.48,8.28-15.27,18.34-15.27,11.65,0,18.17,7.8,18.17,15H753c-.57-3.13-4-5.14-8-5.14-3.86,0-7.07,1.93-7.07,5.46s3.13,4.83,8.6,7.32c5.87,2.66,18.42,5.79,18.42,18.5C764.89,167.38,756.28,172.93,746.07,172.93Z"/><path class="cls-1" d="M790.3,172.93A20.08,20.08,0,0,1,770,152.5a20.4,20.4,0,0,1,20.75-20.58A19.26,19.26,0,0,1,809.92,147H799a9.32,9.32,0,0,0-8.53-5.39c-5.63,0-10.13,4.5-10.13,10.77s4.5,10.78,10.13,10.78a9.28,9.28,0,0,0,8.21-4.83h11C807.11,167.94,798.83,172.93,790.3,172.93Z"/><path class="cls-1" d="M816.12,121.06a6.85,6.85,0,0,1,6.92-6.83,6.75,6.75,0,0,1,6.75,6.83,6.85,6.85,0,0,1-6.75,6.76A6.94,6.94,0,0,1,816.12,121.06Zm12.06,51.47H817.89V132.32h10.29Z"/><path class="cls-1" d="M875.15,155.48H845.8c1.2,6.11,6.19,8.36,10.53,8.36,5.47,0,7.8-3.37,7.8-3.37h10.13A19.13,19.13,0,0,1,856,172.93c-10.85,0-20.34-8.28-20.34-20.83s9.41-20.18,20-20.18C866,131.92,876.44,139.08,875.15,155.48Zm-28.71-8.12h18.09c-1.2-4.75-4.5-6.68-8.52-6.68A10,10,0,0,0,846.44,147.36Z"/><path class="cls-1" d="M920.67,150.74v21.79H910V153.15c0-1.37,1-11.5-6.76-11.9-3.78-.24-10.53,1.85-10.53,12.38v18.9H882.07V132.32h8.2l1.37,4.91H893a15.41,15.41,0,0,1,12.22-5.31C915.6,131.92,920.67,139.64,920.67,150.74Z"/><path class="cls-1" d="M947.93,172.93a20.08,20.08,0,0,1-20.34-20.43,20.4,20.4,0,0,1,20.74-20.58A19.26,19.26,0,0,1,967.55,147H956.62a9.33,9.33,0,0,0-8.53-5.39c-5.63,0-10.13,4.5-10.13,10.77s4.5,10.78,10.13,10.78a9.28,9.28,0,0,0,8.21-4.83h11C964.74,167.94,956.46,172.93,947.93,172.93Z"/><path class="cls-1" d="M1012.35,155.48H983c1.21,6.11,6.19,8.36,10.53,8.36,5.47,0,7.8-3.37,7.8-3.37h10.14a19.16,19.16,0,0,1-18.26,12.46c-10.85,0-20.34-8.28-20.34-20.83s9.41-20.18,20-20.18C1003.18,131.92,1013.64,139.08,1012.35,155.48Zm-28.71-8.12h18.1c-1.21-4.75-4.51-6.68-8.53-6.68A10,10,0,0,0,983.64,147.36Z"/><path class="cls-1" d="M1079.67,164.81v7.72h-2.42c-4.66,0-8-1.69-9.32-5.15-2.42,3.3-6.44,5.55-12.71,5.55-9.09,0-14.88-4.66-14.88-11.9,0-12.55,17.13-13.67,24.85-14.07-.16-4.67-2.73-6.36-6.83-6.36-5.71,0-6.11,3.46-6.11,3.46h-10.06c.73-7.16,6.6-12.14,16.41-12.14,9.57,0,16.32,4.74,16.32,16.4V159C1074.92,163.68,1076.61,164.81,1079.67,164.81ZM1065,155.64v-.8c-7.32.8-14.55,1.69-14.55,5.87C1050.48,166.82,1064.39,166.34,1065,155.64Z"/><path class="cls-1" d="M1124.22,150.74v21.79h-10.69V153.15c0-1.37,1-11.5-6.76-11.9-3.78-.24-10.53,1.85-10.53,12.38v18.9h-10.62V132.32h8.21l1.36,4.91h1.37a15.41,15.41,0,0,1,12.22-5.31C1119.16,131.92,1124.22,139.64,1124.22,150.74Z"/><path class="cls-1" d="M1170.3,115.43v57.1h-7.88l-1.13-3.86h-1.2a13.22,13.22,0,0,1-10.21,4.26c-10.22,0-18.74-8.36-18.74-20.51s8.52-20.5,18.74-20.5a13.44,13.44,0,0,1,10.37,4.34V115.43Zm-10,37c0-6.67-3.62-10.61-8.85-10.61-4.9,0-9.81,3.54-9.81,10.61S1146.5,163,1151.4,163C1156.63,163,1160.25,159.1,1160.25,152.42Z"/><path class="cls-1" d="M764,208.6H748.8v46.31H738V208.6h-15.2v-10H764Z"/><path class="cls-1" d="M800.19,237.87H770.84c1.21,6.11,6.19,8.36,10.54,8.36,5.46,0,7.79-3.38,7.79-3.38h10.14a19.17,19.17,0,0,1-18.26,12.47c-10.85,0-20.34-8.29-20.34-20.83s9.41-20.19,20-20.19C791,214.3,801.48,221.46,800.19,237.87Zm-28.7-8.13h18.09c-1.21-4.74-4.5-6.67-8.53-6.67A9.93,9.93,0,0,0,771.49,229.74Z"/><path class="cls-1" d="M826.17,255.32a20.09,20.09,0,0,1-20.34-20.43,20.41,20.41,0,0,1,20.75-20.59,19.26,19.26,0,0,1,19.21,15.12H834.86a9.35,9.35,0,0,0-8.53-5.39c-5.63,0-10.13,4.51-10.13,10.78s4.5,10.78,10.13,10.78a9.28,9.28,0,0,0,8.21-4.83h11C843,250.33,834.7,255.32,826.17,255.32Z"/><path class="cls-1" d="M890.75,233.12v21.79H880V235.53c0-3.94.64-11.9-6.6-11.9-3.53,0-10.37,1.85-10.37,12.39v18.89H852.24V197.82h10.21v21.07h1.37a15.59,15.59,0,0,1,11.58-4.59C885.77,214.3,890.75,222,890.75,233.12Z"/><path class="cls-1" d="M938.85,233.12v21.79h-10.7V235.53c0-1.36,1-11.5-6.75-11.9-3.78-.24-10.54,1.85-10.54,12.39v18.89H900.25v-40.2h8.2l1.37,4.9h1.36a15.41,15.41,0,0,1,12.23-5.31C933.78,214.3,938.85,222,938.85,233.12Z"/><path class="cls-1" d="M945.77,234.89c0-12.87,10-20.59,20.74-20.59s20.35,7.81,20.35,20.43c0,12.79-9.81,20.59-20.67,20.59S945.77,247.52,945.77,234.89Zm30.55-.08c0-6.27-3.7-11.18-9.81-11.18s-10.21,4.91-10.21,11.18S960.4,246,966.51,246,976.32,241.08,976.32,234.81Z"/><path class="cls-1" d="M1004.23,197.82v57.09H993.78V197.82Z"/><path class="cls-1" d="M1011.23,234.89c0-12.87,10-20.59,20.75-20.59s20.34,7.81,20.34,20.43c0,12.79-9.81,20.59-20.66,20.59S1011.23,247.52,1011.23,234.89Zm30.56-.08c0-6.27-3.7-11.18-9.81-11.18s-10.22,4.91-10.22,11.18S1025.87,246,1032,246,1041.79,241.08,1041.79,234.81Z"/><path class="cls-1" d="M1093.1,258.13c-.32,9.09-8.61,13.27-18.18,13.27-12.46,0-19.62-7.16-17.77-15.84l4.59-3.7a8.35,8.35,0,0,1-4.26-7.08c0-3.3,2.09-5.63,5-7.16a12.7,12.7,0,0,1-4.1-9.64c0-7.72,6-13.76,16.08-13.76a20.12,20.12,0,0,1,9.17,2,20.06,20.06,0,0,0,6.83-5.22l5,6.67a26.5,26.5,0,0,1-6.43,3,12.19,12.19,0,0,1,2.33,7.23c0,7.64-7,13.76-17.13,13.76a21,21,0,0,1-5.71-.73,2.34,2.34,0,0,0-1.2,2c0,2.9,4.42,2.42,7.15,2.42h5.63C1088.92,245.35,1093.34,251.37,1093.1,258.13Zm-9.89-.32c0-2.17-1.77-3.86-6.28-3.86-2.25,0-5.38,0-7.71-.08l-2.74,2.89c-.48,2,1.53,5.31,8.6,5.31C1080.31,262.07,1083.21,260.38,1083.21,257.81Zm-15.2-30c0,3.06,2.17,5.31,6.83,5.31s6.84-2.25,6.84-5.31-2.25-5.06-6.84-5.06S1068,224.76,1068,227.81Z"/><path class="cls-1" d="M1141.75,214.71l-14,41.73c-2.25,6.68-4.91,15-17,15-7.23,0-11-2.9-12.22-4.42l5.07-7.16a9.76,9.76,0,0,0,6.27,2.49c3.38,0,5.63-1.37,6.51-4.1l1.13-3.3h-5.39l-13.83-40.2h11.18L1119.56,244h1.61l9.81-29.27Z"/><path class="cls-1" d="M737.63,291.22v12.55H759.1v9.89H737.63V337.3H726.85V281h37.07v10.21Z"/><path class="cls-1" d="M805.26,329.58v7.72h-2.41c-4.67,0-8-1.69-9.33-5.15-2.41,3.3-6.43,5.55-12.71,5.55-9.08,0-14.87-4.66-14.87-11.9,0-12.54,17.13-13.67,24.85-14.07-.17-4.67-2.74-6.36-6.84-6.36-5.71,0-6.11,3.46-6.11,3.46H767.79c.72-7.15,6.59-12.14,16.4-12.14,9.57,0,16.33,4.74,16.33,16.4v10.7C800.52,328.45,802.2,329.58,805.26,329.58Zm-14.64-9.17v-.8c-7.31.8-14.55,1.69-14.55,5.87C776.07,331.59,790,331.11,790.62,320.41Z"/><path class="cls-1" d="M829.07,337.7a20.08,20.08,0,0,1-20.35-20.43,20.4,20.4,0,0,1,20.75-20.58,19.26,19.26,0,0,1,19.22,15.12H837.75a9.32,9.32,0,0,0-8.52-5.39c-5.63,0-10.13,4.5-10.13,10.77S823.6,328,829.23,328a9.28,9.28,0,0,0,8.2-4.82h11C845.87,332.71,837.59,337.7,829.07,337.7Z"/><path class="cls-1" d="M854.89,285.83A6.84,6.84,0,0,1,861.8,279a6.76,6.76,0,0,1,6.76,6.83,6.86,6.86,0,0,1-6.76,6.76A6.93,6.93,0,0,1,854.89,285.83ZM867,337.3H856.66V297.09H867Z"/><path class="cls-1" d="M886.25,280.2v57.1H875.8V280.2Z"/><path class="cls-1" d="M894,285.83a6.85,6.85,0,0,1,6.92-6.83,6.75,6.75,0,0,1,6.75,6.83,6.85,6.85,0,0,1-6.75,6.76A6.94,6.94,0,0,1,894,285.83ZM906,337.3H895.74V297.09H906Z"/><path class="cls-1" d="M943.75,334.32a14.12,14.12,0,0,1-9.57,3.38c-7.72,0-14.39-5.23-14.39-13.35V305.69h-8v-7.87h4a4.39,4.39,0,0,0,4.58-4.75v-8h9.73v12.06h10.13v8.6H930.08v18a4.92,4.92,0,0,0,5.15,4.82,10.31,10.31,0,0,0,4.66-1.36Z"/><path class="cls-1" d="M946.41,285.83a6.85,6.85,0,0,1,6.92-6.83,6.76,6.76,0,0,1,6.75,6.83,6.85,6.85,0,0,1-6.75,6.76A6.94,6.94,0,0,1,946.41,285.83Zm12.06,51.47H948.18V297.09h10.29Z"/><path class="cls-1" d="M1005.43,320.25H976.08c1.21,6.11,6.19,8.36,10.54,8.36,5.46,0,7.8-3.37,7.8-3.37h10.13A19.13,19.13,0,0,1,986.3,337.7c-10.86,0-20.35-8.28-20.35-20.83s9.41-20.18,20-20.18C996.27,296.69,1006.72,303.85,1005.43,320.25Zm-28.7-8.12h18.09c-1.21-4.75-4.5-6.68-8.52-6.68A9.94,9.94,0,0,0,976.73,312.13Z"/><path class="cls-1" d="M1027.39,305.21c-3.37,0-4.82,1.69-4.82,3.38,0,2.73,3.62,3.54,6,4,7.16,1.53,14.4,3.7,14.4,12.22,0,8.29-6.84,12.87-15.12,12.87-9.25,0-16.41-5.63-16.89-14.15h9.89c.24,2.41,1.85,5.55,6.76,5.55,4.1,0,5.06-2.17,5.06-3.86,0-3-2.81-3.86-5.55-4.51-4.74-1-15-3-15-12.14,0-7.88,7.55-11.9,15.36-11.9,9,0,15,5.47,15.44,12.22h-9.9C1032.78,307.54,1031.5,305.21,1027.39,305.21Z"/><path class="cls-1" d="M1115.53,320.41a23.45,23.45,0,0,1-23.07,17.29c-14.72,0-25.41-12.06-25.41-28.55s10.61-28.54,25.33-28.54a23.61,23.61,0,0,1,23.15,17.29h-12.14c-2.09-4.51-5.87-6.68-10.85-6.68-9.17,0-14.4,7.48-14.4,17.93s5.31,17.94,14.56,17.94c5,0,8.6-2.17,10.69-6.68Z"/><path class="cls-1" d="M1120,317.27c0-12.86,10-20.58,20.75-20.58s20.34,7.8,20.34,20.42c0,12.79-9.81,20.59-20.66,20.59S1120,329.9,1120,317.27Zm30.56-.08c0-6.27-3.7-11.17-9.81-11.17s-10.21,4.9-10.21,11.17,4.1,11.18,10.21,11.18S1150.52,323.47,1150.52,317.19Z"/><path class="cls-1" d="M1206.41,297.09V337.3h-8l-1.45-4.51h-1c-1.61,2-5.15,4.91-11.74,4.91-10.7,0-16.16-7.56-16.16-18.82V297.09h10.93v19.38c0,5,.4,11.9,7.32,11.9,3.54,0,9.33-1.85,9.33-12.38v-18.9Z"/><path class="cls-1" d="M1254.51,315.51V337.3h-10.7V317.92c0-1.37,1-11.5-6.75-11.9-3.78-.24-10.54,1.85-10.54,12.38v18.9h-10.61V297.09h8.2l1.37,4.91h1.36a15.41,15.41,0,0,1,12.23-5.31C1249.44,296.69,1254.51,304.41,1254.51,315.51Z"/><path class="cls-1" d="M1281.77,337.7a20.08,20.08,0,0,1-20.34-20.43,20.39,20.39,0,0,1,20.74-20.58,19.26,19.26,0,0,1,19.22,15.12h-10.93a9.33,9.33,0,0,0-8.53-5.39c-5.63,0-10.13,4.5-10.13,10.77s4.5,10.78,10.13,10.78a9.28,9.28,0,0,0,8.2-4.82h11C1298.58,332.71,1290.29,337.7,1281.77,337.7Z"/><path class="cls-1" d="M1307.59,285.83a6.85,6.85,0,0,1,6.92-6.83,6.75,6.75,0,0,1,6.75,6.83,6.85,6.85,0,0,1-6.75,6.76A6.94,6.94,0,0,1,1307.59,285.83Zm12.06,51.47h-10.29V297.09h10.29Z"/><path class="cls-1" d="M1339,280.2v57.1H1328.5V280.2Z"/></svg>