<?xml version="1.0" encoding="utf-8"?>
<!-- Generator: Adobe Illustrator 27.6.1, SVG Export Plug-In . SVG Version: 6.00 Build 0)  -->
<svg version="1.1" id="LOGO" xmlns="http://www.w3.org/2000/svg" xmlns:xlink="http://www.w3.org/1999/xlink" x="0px" y="0px"
	 viewBox="0 0 1424 733.5" style="enable-background:new 0 0 1424 733.5;" xml:space="preserve">
<style type="text/css">
	.st0{fill:#FFFFFF;}
</style>
<g>
	<g>
		<path class="st0" d="M96.2,525.5H85v-86.1h11.2V525.5z"/>
		<path class="st0" d="M141.9,526.7c-18.2,0-28.9-9.7-30-25.8h10.9c1.4,10.3,8,16.1,19.1,16.1c9,0,16.6-4.1,16.6-13.8
			c0-10.9-9.8-14.4-18-16.9l-4.3-1.2c-9.2-3-21.6-8.2-21.6-23.1c0-14.6,11.8-23.9,27.4-23.9c16.4,0,27.1,10.3,27.8,24.4h-11.1
			c-0.9-8.1-6.3-14.6-16.7-14.6c-9.6,0-16.4,5.7-16.4,13.7c0,9.6,9.7,12.4,17.1,14.8l3.8,1.2c7.4,2.3,23.2,7.6,23.2,25.5
			C169.8,519.1,157,526.7,141.9,526.7z"/>
		<path class="st0" d="M198.2,525.5H187v-86.1h11.2V525.5z"/>
		<path class="st0" d="M243.8,526.7c-18.2,0-28.9-9.7-30-25.8h10.9c1.4,10.3,8,16.1,19.1,16.1c9,0,16.6-4.1,16.6-13.8
			c0-10.9-9.8-14.4-18-16.9l-4.3-1.2c-9.2-3-21.6-8.2-21.6-23.1c0-14.6,11.8-23.9,27.4-23.9c16.4,0,27.1,10.3,27.8,24.4h-11.1
			c-0.9-8.1-6.3-14.6-16.7-14.6c-9.6,0-16.4,5.7-16.4,13.7c0,9.6,9.7,12.4,17.1,14.8l3.8,1.2c7.4,2.3,23.2,7.6,23.2,25.5
			C271.7,519.1,258.9,526.7,243.8,526.7z"/>
		<path class="st0" d="M391.2,439.4v86.1h-12.1l-45.5-67.2h-0.9v67.2h-10.9v-86.1H334l45.4,67.2h0.9v-67.2H391.2z"/>
		<path class="st0" d="M462.3,497.3h-45.9c0.6,12.2,7.8,20.5,19.2,20.5c8,0,14-3.6,16.1-10.3h10.5c-2.7,12.2-12.9,19.2-26.6,19.2
			c-17.5,0-29.9-12.4-29.9-31.4c0-19.9,12.8-32.6,29.4-32.6c14.9,0,27.4,10.2,27.4,30.8C462.5,494.7,462.4,495.8,462.3,497.3z
			 M416.5,489.4h35.5c-0.1-10.6-7-17.8-17-17.8C424.7,471.6,417.6,479.5,416.5,489.4z"/>
		<path class="st0" d="M526.1,525.5h-9.7l-1-7.4h-0.9c-3.3,4.6-8.2,8.6-17.8,8.6c-13.2,0-22.4-8.4-22.4-24.1V464H485v36.3
			c0,11.8,6.4,17,14.4,17c8.4,0,16-5.4,16-18.2V464h10.7V525.5z"/>
		<path class="st0" d="M547.5,511.6v-38.9h-13V464h4.2c7.3,0,9.8-2.5,9.8-9.1v-7.6h9.8V464h15.4v8.7h-15.4v37.4
			c0,4.4,1.7,7.7,7.7,7.7c2,0,4.2-0.4,6.2-1v8.5c-2.2,0.6-5.2,1.4-9,1.4C550.4,526.7,547.5,518.7,547.5,511.6z"/>
		<path class="st0" d="M581.9,464h9.7l1,8.5h0.9c3.2-5.5,7.5-9.7,17.6-9.7h3.6v10.8c-1.8-0.2-3.6-0.2-5.5-0.2
			c-10.7,0-16.5,8.4-16.5,19.9v32.2h-10.7V464z"/>
		<path class="st0" d="M618.7,494.7c0-18.4,12.9-32,30.9-32c17.7,0,31,13.7,31,32c0,18.5-13.2,32-31,32
			C631.9,526.7,618.7,512.9,618.7,494.7z M669.9,494.7c0-12.3-8.2-22.5-20.3-22.5c-12.2,0-20,10.2-20,22.5c0,12.2,8,22.5,20,22.5
			C661.6,517.2,669.9,506.9,669.9,494.7z"/>
		<path class="st0" d="M692.5,464h9.7l1,7.4h0.9c3.3-4.6,8.2-8.6,17.8-8.6c13.2,0,22.4,8.4,22.4,24.1v38.6h-10.7v-36.3
			c0-11.8-6.4-17-14.4-17c-8.4,0-16,5.4-16,18.2v35.1h-10.7V464z"/>
		<path class="st0" d="M845.3,517.1v8.4h-4.9c-5.8,0-9.6-2-10.9-7.9c-4.3,5.5-11.2,9.1-20.3,9.1c-11.4,0-20.3-5.5-20.3-17.6
			c0-11.6,8.9-17.6,20.9-18.8l18.3-1.7v-3.4c0-8.4-4.6-13.5-12.8-13.5c-8.4,0-12.1,5-13.3,11.7h-10.7c1.2-11.8,9.8-20.5,24-20.5
			c13.8,0,23.6,7.7,23.6,22.6v26.7c0,3.6,1.6,5,4.8,5H845.3z M828.1,496.4l-14.9,1.5c-8,0.7-13.5,4.3-13.5,10.8
			c0,6.9,5,9.3,10.9,9.3c8.1,0,17.5-4.3,17.5-16.2V496.4z"/>
		<path class="st0" d="M854.9,464h9.7l1,7.4h0.9c3.3-4.6,8.2-8.6,17.8-8.6c13.2,0,22.4,8.4,22.4,24.1v38.6H896v-36.3
			c0-11.8-6.4-17-14.4-17c-8.4,0-16,5.4-16,18.2v35.1h-10.7V464z"/>
		<path class="st0" d="M977.2,438.1v87.3h-8.9l-1-8.7h-0.7c-3.1,4.3-9.1,10-19.8,10c-16.5,0-28.3-12.9-28.3-32.1
			c0-19.6,12.1-31.9,28.3-31.9c10.3,0,16.6,5,19.7,9.3v-33.9H977.2z M966.5,494.6c0-13.3-7.3-22.4-18.3-22.4
			c-11.2,0-18.9,9.1-18.9,22.4c0,13.5,7.7,22.6,18.9,22.6C959.2,517.2,966.5,508.1,966.5,494.6z"/>
		<path class="st0" d="M171.5,648.5h-10.9v-66.2h-0.7l-25.3,56.3h-12.1L97,582.3h-1v66.2H85v-86.1h14.3l28.7,64.6h0.9l28.5-64.6
			h14.1V648.5z"/>
		<path class="st0" d="M240.5,648.5h-9.7l-1-7.4h-0.9c-3.3,4.6-8.2,8.6-17.8,8.6c-13.2,0-22.4-8.4-22.4-24.1V587h10.7v36.3
			c0,11.8,6.4,17,14.4,17c8.4,0,16-5.4,16-18.2V587h10.7V648.5z"/>
		<path class="st0" d="M252.4,617.7c0-18.5,12.9-32,30.9-32c17.7,0,31,13.7,31,32c0,18.5-13.2,32-31,32
			C265.6,649.7,252.4,635.9,252.4,617.7z M303.6,617.7c0-12.3-8.2-22.5-20.3-22.5c-12.2,0-20,10.2-20,22.5c0,12.2,8,22.5,20,22.5
			C295.4,640.2,303.6,629.9,303.6,617.7z"/>
		<path class="st0" d="M326.3,587h9.7l1,7.4h0.9c3.3-4.6,8.2-8.6,17.8-8.6c13.2,0,22.4,8.4,22.4,24.1v38.6h-10.7v-36.3
			c0-11.8-6.4-17-14.4-17c-8.4,0-16,5.4-16,18.2v35.1h-10.7V587z"/>
		<path class="st0" d="M455.5,649.7c-18.2,0-28.9-9.7-30-25.8h10.9c1.4,10.3,8,16.1,19.1,16.1c9,0,16.6-4.1,16.6-13.8
			c0-10.9-9.8-14.4-18-16.9l-4.3-1.2c-9.2-3-21.6-8.2-21.6-23.1c0-14.6,11.8-23.9,27.4-23.9c16.4,0,27.1,10.3,27.8,24.4h-11.1
			c-0.9-8.1-6.3-14.6-16.7-14.6c-9.6,0-16.4,5.7-16.4,13.7c0,9.6,9.7,12.4,17.1,14.8l3.8,1.2c7.4,2.3,23.2,7.6,23.2,25.5
			C483.4,642.1,470.7,649.7,455.5,649.7z"/>
		<path class="st0" d="M494.5,617.7c0-18.5,12.9-32,30.9-32c17.7,0,31,13.7,31,32c0,18.5-13.2,32-31,32
			C507.6,649.7,494.5,635.9,494.5,617.7z M545.6,617.7c0-12.3-8.2-22.5-20.3-22.5c-12.2,0-20,10.2-20,22.5c0,12.2,8,22.5,20,22.5
			C537.4,640.2,545.6,629.9,545.6,617.7z"/>
		<path class="st0" d="M619.6,648.5h-9.7l-1-7.4H608c-3.3,4.6-8.2,8.6-17.8,8.6c-13.2,0-22.4-8.4-22.4-24.1V587h10.7v36.3
			c0,11.8,6.4,17,14.4,17c8.4,0,16-5.4,16-18.2V587h10.7V648.5z"/>
		<path class="st0" d="M634.3,587h9.7l1,8.5h0.9c3.2-5.5,7.5-9.7,17.6-9.7h3.6v10.8c-1.8-0.2-3.6-0.2-5.5-0.2
			c-10.7,0-16.5,8.4-16.5,19.9v32.2h-10.7V587z"/>
		<path class="st0" d="M671.1,618.1c0-18.7,12.8-32.3,30.5-32.3c13.7,0,25.6,7.7,27.8,22h-10.8c-1.6-6.8-7.7-12.5-17-12.5
			c-11.6,0-19.7,10-19.7,22.9c0,12.4,7.5,22.1,19.8,22.1c9.1,0,14.8-4.7,17.1-11.8h10.8c-2.3,12.9-13.2,21.3-27.9,21.3
			C683,649.7,671.1,636,671.1,618.1z"/>
		<path class="st0" d="M794.3,620.3h-45.9c0.6,12.2,7.8,20.5,19.2,20.5c8,0,14-3.6,16.1-10.3h10.5c-2.7,12.2-12.9,19.2-26.6,19.2
			c-17.5,0-29.9-12.4-29.9-31.4c0-19.9,12.8-32.6,29.4-32.6c14.9,0,27.4,10.2,27.4,30.8C794.5,617.7,794.4,618.8,794.3,620.3z
			 M748.5,612.4h35.5c-0.1-10.6-7-17.8-17-17.8C756.8,594.6,749.6,602.5,748.5,612.4z"/>
	</g>
	<g>
		<g>
			<g>
				<path class="st0" d="M740.2,174.1c-12.4,0-21-8.1-21-18.8h10.6c1,7.1,6.8,8.7,10.4,8.7c2.8,0,8.3-1,8.3-6.3
					c0-4.8-4.6-6.7-9.3-8.5c-7.6-3-18.4-6.7-18.4-17.5c0-9.6,8.4-15.4,18.5-15.4c11.8,0,18.4,7.9,18.4,15.1h-10.4
					c-0.6-3.2-4.1-5.2-8.1-5.2c-3.9,0-7.1,1.9-7.1,5.5c0,3.5,3.2,4.9,8.7,7.4c5.9,2.7,18.6,5.8,18.6,18.7
					C759.2,168.5,750.5,174.1,740.2,174.1z"/>
				<path class="st0" d="M784.8,174.1c-11.3,0-20.5-8.7-20.5-20.6c0-12.1,9.6-20.8,21-20.8c9.3,0,17.1,5.8,19.4,15.3h-11
					c-1.7-3.3-4.7-5.4-8.6-5.4c-5.7,0-10.2,4.5-10.2,10.9s4.5,10.9,10.2,10.9c3.7,0,6.5-1.9,8.3-4.9h11.1
					C801.8,169.1,793.4,174.1,784.8,174.1z"/>
				<path class="st0" d="M810.9,121.7c0-3.9,3.2-6.9,7-6.9c3.7,0,6.8,3,6.8,6.9c0,3.7-3.1,6.8-6.8,6.8
					C814.1,128.6,810.9,125.4,810.9,121.7z M823.1,173.7h-10.4v-40.6h10.4V173.7z"/>
				<path class="st0" d="M870.5,156.5h-29.6c1.2,6.2,6.3,8.4,10.6,8.4c5.5,0,7.9-3.4,7.9-3.4h10.2c-3.1,8.1-10.5,12.6-18.4,12.6
					c-11,0-20.5-8.4-20.5-21c0-12.6,9.5-20.4,20.2-20.4C861.3,132.7,871.8,139.9,870.5,156.5z M841.5,148.3h18.3
					c-1.2-4.8-4.5-6.7-8.6-6.7C846.7,141.6,843.2,144.1,841.5,148.3z"/>
				<path class="st0" d="M916.5,151.7v22h-10.8v-19.6c0-1.4,1-11.6-6.8-12c-3.8-0.2-10.6,1.9-10.6,12.5v19.1h-10.7v-40.6h8.3l1.4,5
					h1.4c1.7-2,5.5-5.4,12.3-5.4C911.4,132.7,916.5,140.5,916.5,151.7z"/>
				<path class="st0" d="M944,174.1c-11.3,0-20.5-8.7-20.5-20.6c0-12.1,9.6-20.8,21-20.8c9.3,0,17.1,5.8,19.4,15.3h-11
					c-1.7-3.3-4.7-5.4-8.6-5.4c-5.7,0-10.2,4.5-10.2,10.9s4.5,10.9,10.2,10.9c3.7,0,6.5-1.9,8.3-4.9h11.1
					C961,169.1,952.6,174.1,944,174.1z"/>
				<path class="st0" d="M1009.1,156.5h-29.6c1.2,6.2,6.3,8.4,10.6,8.4c5.5,0,7.9-3.4,7.9-3.4h10.2c-3.1,8.1-10.5,12.6-18.4,12.6
					c-11,0-20.5-8.4-20.5-21c0-12.6,9.5-20.4,20.2-20.4C999.8,132.7,1010.4,139.9,1009.1,156.5z M980.1,148.3h18.3
					c-1.2-4.8-4.5-6.7-8.6-6.7C985.3,141.6,981.7,144.1,980.1,148.3z"/>
				<path class="st0" d="M1077.1,165.9v7.8h-2.4c-4.7,0-8-1.7-9.4-5.2c-2.4,3.3-6.5,5.6-12.8,5.6c-9.2,0-15-4.7-15-12
					c0-12.7,17.3-13.8,25.1-14.2c-0.2-4.7-2.8-6.4-6.9-6.4c-5.8,0-6.2,3.5-6.2,3.5h-10.2c0.7-7.2,6.7-12.3,16.6-12.3
					c9.7,0,16.5,4.8,16.5,16.6v10.8C1072.3,164.8,1074,165.9,1077.1,165.9z M1062.3,156.7v-0.8c-7.4,0.8-14.7,1.7-14.7,5.9
					C1047.6,168,1061.6,167.5,1062.3,156.7z"/>
				<path class="st0" d="M1122.1,151.7v22h-10.8v-19.6c0-1.4,1-11.6-6.8-12c-3.8-0.2-10.6,1.9-10.6,12.5v19.1h-10.7v-40.6h8.3l1.4,5
					h1.4c1.7-2,5.5-5.4,12.3-5.4C1117,132.7,1122.1,140.5,1122.1,151.7z"/>
				<path class="st0" d="M1168.6,116.1v57.7h-8l-1.1-3.9h-1.2c-2.5,2.8-5.9,4.3-10.3,4.3c-10.3,0-18.9-8.4-18.9-20.7
					s8.6-20.7,18.9-20.7c4.2,0,7.9,1.5,10.5,4.4v-21H1168.6z M1158.5,153.4c0-6.7-3.7-10.7-8.9-10.7c-5,0-9.9,3.6-9.9,10.7
					s5,10.7,9.9,10.7C1154.8,164.1,1158.5,160.2,1158.5,153.4z"/>
				<path class="st0" d="M758.3,210.1h-15.3v46.8H732v-46.8h-15.3v-10.1h41.6V210.1z"/>
				<path class="st0" d="M794.8,239.7h-29.6c1.2,6.2,6.3,8.4,10.6,8.4c5.5,0,7.9-3.4,7.9-3.4h10.2c-3.1,8.1-10.5,12.6-18.4,12.6
					c-11,0-20.5-8.4-20.5-21c0-12.6,9.5-20.4,20.2-20.4C785.6,215.9,796.1,223.1,794.8,239.7z M765.8,231.5h18.3
					c-1.2-4.8-4.5-6.7-8.6-6.7C771,224.8,767.4,227.3,765.8,231.5z"/>
				<path class="st0" d="M821.1,257.3c-11.3,0-20.5-8.7-20.5-20.6c0-12.1,9.6-20.8,21-20.8c9.3,0,17.1,5.8,19.4,15.3h-11
					c-1.7-3.3-4.7-5.4-8.6-5.4c-5.7,0-10.2,4.5-10.2,10.9c0,6.3,4.5,10.9,10.2,10.9c3.7,0,6.5-1.9,8.3-4.9h11.1
					C838,252.3,829.7,257.3,821.1,257.3z"/>
				<path class="st0" d="M886.3,234.9v22h-10.9v-19.6c0-4,0.7-12-6.7-12c-3.6,0-10.5,1.9-10.5,12.5v19.1h-10.9v-57.7h10.3v21.3h1.4
					c1.9-2,5.7-4.6,11.7-4.6C881.2,215.9,886.3,223.7,886.3,234.9z"/>
				<path class="st0" d="M934.9,234.9v22h-10.8v-19.6c0-1.4,1-11.6-6.8-12c-3.8-0.2-10.6,1.9-10.6,12.5v19.1h-10.7v-40.6h8.3l1.4,5
					h1.4c1.7-2,5.5-5.4,12.3-5.4C929.7,215.9,934.9,223.7,934.9,234.9z"/>
				<path class="st0" d="M941.8,236.7c0-13,10.1-20.8,21-20.8c11,0,20.5,7.9,20.5,20.6c0,12.9-9.9,20.8-20.9,20.8
					C951.4,257.3,941.8,249.5,941.8,236.7z M972.7,236.6c0-6.3-3.7-11.3-9.9-11.3c-6.2,0-10.3,5-10.3,11.3c0,6.3,4.1,11.3,10.3,11.3
					C969,247.9,972.7,243,972.7,236.6z"/>
				<path class="st0" d="M1000.9,199.3v57.7h-10.6v-57.7H1000.9z"/>
				<path class="st0" d="M1008,236.7c0-13,10.1-20.8,21-20.8c11,0,20.5,7.9,20.5,20.6c0,12.9-9.9,20.8-20.9,20.8
					C1017.5,257.3,1008,249.5,1008,236.7z M1038.8,236.6c0-6.3-3.7-11.3-9.9-11.3c-6.2,0-10.3,5-10.3,11.3c0,6.3,4.1,11.3,10.3,11.3
					C1035.1,247.9,1038.8,243,1038.8,236.6z"/>
				<path class="st0" d="M1090.6,260.2c-0.3,9.2-8.7,13.4-18.4,13.4c-12.6,0-19.8-7.2-17.9-16l4.6-3.7c-2.6-1.6-4.3-4.1-4.3-7.1
					c0-3.3,2.1-5.7,5-7.2c-2.8-2.5-4.1-5.9-4.1-9.7c0-7.8,6-13.9,16.2-13.9c3.6,0,6.7,0.7,9.3,2c4.4-2,6.9-5.3,6.9-5.3l5,6.7
					c0,0-2.8,1.9-6.5,3c1.5,2.1,2.4,4.6,2.4,7.3c0,7.7-7.1,13.9-17.3,13.9c-2.1,0-4.1-0.2-5.8-0.7c-0.6,0.4-1.2,1.1-1.2,2
					c0,2.9,4.5,2.4,7.2,2.4h5.7C1086.4,247.3,1090.9,253.4,1090.6,260.2z M1080.7,259.8c0-2.2-1.8-3.9-6.3-3.9c-2.3,0-5.4,0-7.8-0.1
					l-2.8,2.9c-0.5,2,1.5,5.4,8.7,5.4C1077.7,264.2,1080.7,262.4,1080.7,259.8z M1065.3,229.6c0,3.1,2.2,5.4,6.9,5.4
					c4.6,0,6.9-2.3,6.9-5.4c0-3-2.3-5.1-6.9-5.1C1067.6,224.4,1065.3,226.5,1065.3,229.6z"/>
				<path class="st0" d="M1139.8,216.3l-14.1,42.2c-2.3,6.7-5,15.1-17.2,15.1c-7.3,0-11.1-2.9-12.3-4.5l5.1-7.2
					c0.4,0.4,2.9,2.5,6.3,2.5c3.4,0,5.7-1.4,6.6-4.1l1.1-3.3h-5.4l-14-40.6h11.3l10.2,29.6h1.6l9.9-29.6H1139.8z"/>
				<path class="st0" d="M731.6,293.6v12.7h21.7v10h-21.7v23.9h-10.9v-33.9v-23h37.4v10.3H731.6z"/>
				<path class="st0" d="M799.9,332.3v7.8h-2.4c-4.7,0-8-1.7-9.4-5.2c-2.4,3.3-6.5,5.6-12.8,5.6c-9.2,0-15-4.7-15-12
					c0-12.7,17.3-13.8,25.1-14.2c-0.2-4.7-2.8-6.4-6.9-6.4c-5.8,0-6.2,3.5-6.2,3.5h-10.2c0.7-7.2,6.7-12.3,16.6-12.3
					c9.7,0,16.5,4.8,16.5,16.6v10.8C795.1,331.2,796.8,332.3,799.9,332.3z M785.2,323.1v-0.8c-7.4,0.8-14.7,1.7-14.7,5.9
					C770.5,334.4,784.5,333.9,785.2,323.1z"/>
				<path class="st0" d="M824,340.5c-11.3,0-20.5-8.7-20.5-20.6c0-12.1,9.6-20.8,21-20.8c9.3,0,17.1,5.8,19.4,15.3h-11
					c-1.7-3.3-4.7-5.4-8.6-5.4c-5.7,0-10.2,4.5-10.2,10.9s4.5,10.9,10.2,10.9c3.7,0,6.5-1.9,8.3-4.9h11.1
					C841,335.5,832.6,340.5,824,340.5z"/>
				<path class="st0" d="M850.1,288.2c0-3.9,3.2-6.9,7-6.9c3.7,0,6.8,3,6.8,6.9c0,3.7-3.1,6.8-6.8,6.8
					C853.2,295,850.1,291.8,850.1,288.2z M862.2,340.1h-10.4v-40.6h10.4V340.1z"/>
				<path class="st0" d="M881.7,282.5v57.7h-10.6v-57.7H881.7z"/>
				<path class="st0" d="M889.5,288.2c0-3.9,3.2-6.9,7-6.9c3.7,0,6.8,3,6.8,6.9c0,3.7-3.1,6.8-6.8,6.8
					C892.7,295,889.5,291.8,889.5,288.2z M901.7,340.1h-10.4v-40.6h10.4V340.1z"/>
				<path class="st0" d="M939.8,337.1c0,0-3.4,3.4-9.7,3.4c-7.8,0-14.5-5.3-14.5-13.5v-18.8h-8.1v-8h4.1c2.8,0,4.6-1.9,4.6-4.8v-8.1
					h9.8v12.2h10.2v8.7H926v18.2c0,2.8,2.3,4.9,5.2,4.9c2.4,0,4.7-1.4,4.7-1.4L939.8,337.1z"/>
				<path class="st0" d="M942.5,288.2c0-3.9,3.2-6.9,7-6.9c3.7,0,6.8,3,6.8,6.9c0,3.7-3.1,6.8-6.8,6.8
					C945.7,295,942.5,291.8,942.5,288.2z M954.7,340.1h-10.4v-40.6h10.4V340.1z"/>
				<path class="st0" d="M1002.1,322.9h-29.6c1.2,6.2,6.3,8.4,10.6,8.4c5.5,0,7.9-3.4,7.9-3.4h10.2c-3.1,8.1-10.5,12.6-18.4,12.6
					c-11,0-20.5-8.4-20.5-21c0-12.6,9.5-20.4,20.2-20.4C992.8,299.1,1003.4,306.3,1002.1,322.9z M973.1,314.7h18.3
					c-1.2-4.8-4.5-6.7-8.6-6.7C978.3,308,974.7,310.5,973.1,314.7z"/>
				<path class="st0" d="M1024.3,307.7c-3.4,0-4.9,1.7-4.9,3.4c0,2.8,3.7,3.6,6.1,4.1c7.2,1.5,14.5,3.7,14.5,12.3
					c0,8.4-6.9,13-15.3,13c-9.3,0-16.6-5.7-17.1-14.3h10c0.2,2.4,1.9,5.6,6.8,5.6c4.1,0,5.1-2.2,5.1-3.9c0-3-2.8-3.9-5.6-4.5
					c-4.8-1.1-15.1-3-15.1-12.3c0-8,7.6-12,15.5-12c9.1,0,15.1,5.5,15.6,12.3h-10C1029.7,310.1,1028.4,307.7,1024.3,307.7z"/>
				<path class="st0" d="M1113.3,323.1c-3.2,10.9-12.3,17.5-23.3,17.5c-14.9,0-25.7-12.2-25.7-28.8c0-16.6,10.7-28.8,25.6-28.8
					c10.9,0,20.1,6.6,23.4,17.5H1101c-2.1-4.5-5.9-6.7-11-6.7c-9.3,0-14.5,7.6-14.5,18.1c0,10.6,5.4,18.1,14.7,18.1
					c5,0,8.7-2.2,10.8-6.7H1113.3z"/>
				<path class="st0" d="M1117.8,319.9c0-13,10.1-20.8,21-20.8c11,0,20.5,7.9,20.5,20.6c0,12.9-9.9,20.8-20.9,20.8
					C1127.4,340.5,1117.8,332.7,1117.8,319.9z M1148.6,319.8c0-6.3-3.7-11.3-9.9-11.3c-6.2,0-10.3,5-10.3,11.3s4.1,11.3,10.3,11.3
					C1144.9,331.1,1148.6,326.2,1148.6,319.8z"/>
				<path class="st0" d="M1205.1,299.5v40.6h-8.1l-1.5-4.5h-1.1c-1.6,2-5.2,5-11.9,5c-10.8,0-16.3-7.6-16.3-19v-22h11v19.6
					c0,5,0.4,12,7.4,12c3.6,0,9.4-1.9,9.4-12.5v-19.1H1205.1z"/>
				<path class="st0" d="M1253.7,318.1v22h-10.8v-19.6c0-1.4,1-11.6-6.8-12c-3.8-0.2-10.6,1.9-10.6,12.5v19.1h-10.7v-40.6h8.3l1.4,5
					h1.4c1.7-2,5.5-5.4,12.3-5.4C1248.5,299.1,1253.7,306.9,1253.7,318.1z"/>
				<path class="st0" d="M1281.2,340.5c-11.3,0-20.5-8.7-20.5-20.6c0-12.1,9.6-20.8,21-20.8c9.3,0,17.1,5.8,19.4,15.3h-11
					c-1.7-3.3-4.7-5.4-8.6-5.4c-5.7,0-10.2,4.5-10.2,10.9s4.5,10.9,10.2,10.9c3.7,0,6.5-1.9,8.3-4.9h11.1
					C1298.2,335.5,1289.8,340.5,1281.2,340.5z"/>
				<path class="st0" d="M1307.3,288.2c0-3.9,3.2-6.9,7-6.9c3.7,0,6.8,3,6.8,6.9c0,3.7-3.1,6.8-6.8,6.8
					C1310.4,295,1307.3,291.8,1307.3,288.2z M1319.5,340.1h-10.4v-40.6h10.4V340.1z"/>
				<path class="st0" d="M1339,282.5v57.7h-10.6v-57.7H1339z"/>
			</g>
		</g>
		<path class="st0" d="M180.5,228.5c21.6-2.2,41.7-13.9,47.7-34.2v51.8C221.1,234.1,204.7,228.6,180.5,228.5z M232.4,263.6
			c0,18.9-10.8,29.7-31.8,33.6l27.5,36.1v-15.6h39.1V251h-36.8C231.8,254.7,232.4,258.9,232.4,263.6z M180.5,251h-30.5v25.2h30.5
			c12.6,0,17.6-5,17.6-12.7C198.1,255.9,193,251,180.5,251z M261.6,228.5h44.9l-44.9-47.9V228.5z M371.3,85.4v286.3H85V85.4H371.3z
			 M339.8,116.9h-33.4l-44.9,47.8v-47.8h-64.8v63.4c0,13.6-10.1,21.5-23.4,21.5c-13.3,0-23.4-7.9-23.4-21.5v-63.4h-33.4v63.9
			c0,28.6,23.1,45.1,49.2,47.7h-49.2v111.6h33.4v-41.4h14.6l30.8,41.4h144.5v-22.5h-39.1V251h39.1v-29.5l-47.8-49l47.8-48.8V116.9z"
			/>
		<path class="st0" d="M398.6,85.4l-27.2-35.9v35.9v286.2h286.3V202.1V85.4H398.6z M381.4,361.6V95.4v-10v-6.1l4.6,6.1l4.6,6.1l3,4
			l175.3,230.4l18,23.6v-29.7V212.1h60.7v149.5H381.4z M576.9,202.1v117.6L406.2,95.4h241.4v106.7H576.9z"/>
	</g>
</g>
</svg>
